<svg xmlns="http://www.w3.org/2000/svg" width="400" height="250" viewBox="0 0 400 250"><rect width="100%" height="100%" fill="#1e7d34"/><path fill="#ffffff" d="m105.525 105.19-1.85 3.49q-.33.57-.7.84-.37.26-.92.26-.58 0-1.25-.43t-1.61-.95q-.93-.52-2.19-.95-1.25-.42-2.95-.42-1.54 0-2.7.37-1.15.37-1.94 1.03-.78.66-1.16 1.58-.39.92-.39 2.02 0 1.41.78 2.34.79.93 2.08 1.59t2.94 1.19q1.65.52 3.39 1.11 1.73.59 3.38 1.38 1.65.78 2.94 1.98 1.29 1.19 2.08 2.93.78 1.73.78 4.2 0 2.7-.92 5.05t-2.7 4.1q-1.77 1.74-4.33 2.75-2.55 1-5.85 1-1.9 0-3.74-.37-1.85-.37-3.54-1.06t-3.17-1.65q-1.49-.96-2.64-2.15l2.17-3.54q.27-.39.71-.65t.94-.26q.69 0 1.48.56.8.57 1.9 1.26 1.1.68 2.57 1.25 1.47.56 3.54.56 3.16 0 4.89-1.5t1.73-4.3q0-1.57-.78-2.56t-2.08-1.66q-1.29-.68-2.94-1.14-1.65-.47-3.35-1.02-1.71-.55-3.36-1.32t-2.94-2.01-2.08-3.09q-.78-1.86-.78-4.58 0-2.17.86-4.24.87-2.06 2.52-3.66 1.65-1.59 4.07-2.55t5.56-.96q3.52 0 6.49 1.1 2.97 1.09 5.06 3.08m12.37 16.14q0 3.27.88 5.87t2.52 4.4q1.63 1.8 3.96 2.76 2.32.97 5.24.97 2.91 0 5.23-.97 2.33-.96 3.95-2.76t2.5-4.4.88-5.87q0-3.28-.88-5.87-.88-2.6-2.5-4.42-1.62-1.81-3.95-2.78-2.32-.96-5.23-.96-2.92 0-5.24.96-2.33.97-3.96 2.78-1.64 1.82-2.52 4.42-.88 2.59-.88 5.87m24.7 16.66 10.09 11h-6.11q-1.32 0-2.38-.36-1.05-.35-1.93-1.31l-5.83-6.44q-1.41.39-2.88.58t-3.06.19q-4.51 0-8.23-1.53-3.71-1.52-6.36-4.24-2.66-2.73-4.11-6.45-1.46-3.73-1.46-8.1t1.46-8.1q1.45-3.73 4.11-6.45 2.65-2.72 6.36-4.25 3.72-1.52 8.23-1.52 3.02 0 5.69.7t4.89 1.98q2.23 1.28 4 3.1 1.78 1.83 3.02 4.09 1.23 2.25 1.88 4.89t.65 5.56q0 2.67-.55 5.1t-1.59 4.55q-1.03 2.12-2.51 3.89-1.49 1.77-3.38 3.12m21.94-36.55v39.77h-7.42v-39.77zm49.25 0h6.52v39.77h-3.79q-.88 0-1.48-.29-.59-.29-1.14-.97l-20.76-26.51q.17 1.81.17 3.35v24.42h-6.52v-39.77h3.88q.46 0 .81.05.34.04.6.16t.51.36q.25.23.55.62l20.85 26.62q-.09-.97-.14-1.9-.06-.93-.06-1.73zm19.67 22.42h12.81q0-1.32-.37-2.49t-1.11-2.05q-.75-.88-1.89-1.39t-2.65-.51q-2.94 0-4.64 1.68-1.69 1.68-2.15 4.76m17.32 4.09h-17.46q.16 2.18.77 3.76.6 1.58 1.59 2.61t2.35 1.54q1.37.51 3.02.51t2.84-.38q1.2-.39 2.09-.86.9-.46 1.57-.85t1.31-.39q.85 0 1.26.64l1.95 2.47q-1.12 1.32-2.53 2.22-1.4.89-2.93 1.43-1.52.53-3.1.75t-3.07.22q-2.94 0-5.47-.97-2.53-.98-4.4-2.89t-2.94-4.73q-1.08-2.82-1.08-6.53 0-2.89.94-5.43.93-2.55 2.68-4.43 1.75-1.89 4.26-2.98 2.52-1.11 5.68-1.11 2.67 0 4.92.86 2.26.85 3.88 2.49 1.62 1.63 2.54 4.01.93 2.38.93 5.43 0 1.54-.33 2.08-.33.53-1.27.53m41.8-14.95h5.17l-8.96 28.21h-5.45q-.93 0-1.29-1.21l-5.06-16.31q-.25-.82-.46-1.63-.2-.81-.34-1.64-.16.83-.37 1.66-.21.84-.45 1.67l-5.15 16.25q-.33 1.21-1.45 1.21h-5.23l-8.94-28.21h5.42q.74 0 1.27.35.52.36.68.91l4.05 15.07q.3 1.24.53 2.42.24 1.18.4 2.37.3-1.19.65-2.37.34-1.18.73-2.42l4.67-15.12q.17-.55.65-.91t1.17-.36h2.99q.72 0 1.23.36t.67.91l4.54 15.12q.36 1.24.67 2.43.32 1.2.62 2.38.36-2.33 1.02-4.81l4.15-15.07q.19-.55.69-.91.49-.35 1.18-.35m27.78 3.05-1.54 2.45q-.28.44-.58.61-.3.18-.77.18-.5 0-1.06-.27-.56-.28-1.31-.62-.74-.35-1.69-.62-.95-.28-2.24-.28-2.01 0-3.15.86-1.14.85-1.14 2.22 0 .91.59 1.53t1.57 1.09q.98.46 2.21.84 1.24.37 2.52.81t2.52 1q1.23.57 2.21 1.43.98.87 1.57 2.08t.59 2.91q0 2.04-.73 3.76t-2.16 2.97-3.53 1.95q-2.11.7-4.86.7-1.45 0-2.84-.26t-2.67-.73-2.37-1.1q-1.08-.63-1.91-1.37l1.57-2.59q.3-.47.72-.72.41-.24 1.04-.24t1.2.36q.56.35 1.3.76.75.42 1.75.78 1 .35 2.54.35 1.21 0 2.08-.29t1.43-.75q.56-.47.82-1.09.27-.62.27-1.28 0-.99-.6-1.62-.59-.63-1.56-1.1-.98-.47-2.23-.84t-2.56-.81q-1.3-.44-2.56-1.03-1.25-.59-2.22-1.5-.98-.91-1.57-2.23t-.59-3.19q0-1.73.69-3.3.68-1.56 2.02-2.73 1.33-1.17 3.32-1.87 2-.71 4.61-.71 2.92 0 5.31.97 2.39.96 3.99 2.53"/></svg>